<svg xmlns="http://www.w3.org/2000/svg" viewBox="0 0 9 10">
  <defs>
    <filter id="black-shadow">
      <feDropShadow dx="0" dy="0" stdDeviation="0.2" flood-color="white" />
    </filter>
    <filter id="white-shadow">
      <feDropShadow dx="0" dy="0" stdDeviation="0.2" flood-color="black" />
    </filter>
    <path
      id="pawn"
      d="
        M 2,1 C 2,2 2,2 3,2 L 3.25,4 C 2.5,4 2.5,4 2.5,4.25 C 2.5,4.5 2.5,4.5 3.25,4.5
        C 3,6 3,6 4,6 C 5,6 5,6 4.75,4.5 C 5.5,4.5 5.5,4.5 5.5,4.25 C 5.5,4 5.5,4 4.75,4
        L 5,2 C 6,2 6,2 6,1 z
      "
    />
    <path
      id="rook"
      d="
        M 1.5,1 c 0,1 0,1 1,1 L 3.25,5 C 2,5 2,5 2,7
        h 0.75 v -0.5 h 0.75 v 0.5 h 1 v -0.5 h 0.75 v 0.5 h 0.75
        C 6,5 6,5 4.75,5 L 5.5,2 c 1,0 1,0 1,-1 z
      "
    />
    <path
      id="knight"
      d="
        M 1.5,1 c 0,1 0,1 1,1 c 0,1 0,1 1,2 c 0.5,1 0.5,1 -1,0.5 c -1,0 -1,0 -1,1
        L 6,7 l -0.25,-1 c 1,-1 -0.5,-2 -0.25,-4 c 1,0 1,0 1,-1 z
      "
    />
    <path
      id="bishop"
      d="
        M 1.5,1 c 0,1 0,1 1,1 L 3.25,3 C 2.25,3 2.25,5 4,7 C 5.75,5 5.75,3 4.75,3
        L 5.5,2 c 1,0 1,0 1,-1 z
      "
    />
    <path
      id="queen"
      d="
        M 1.5,1 c 0,1 0,1 1,1
        L 1,6 2.75,4.5 3,7 4,4.75 5,7 5.25,4.5 7,6 5.5,2 c 1,0 1,0 1,-1 z
      "
    />
    <path
      id="king"
      d="
        M 1.5,1 c 0,1 0,1 1,1 C 1,4 1,6.5 3.75,5.75
        v 0.5 h -0.5 v 0.5 h 0.5 v 0.5 h 0.5 v -0.5 h 0.5 v -0.5 h -0.5 v -0.5
        C 7,6.5 7,4 5.5,2 c 1,0 1,0 1,-1 z
      "
    />
  </defs>
  <g id="scene" transform="translate(0 10) scale(1 -1)">
    <rect stroke-width="0.05" x="0.025" y="0.525" width="8.95" height="8.95" stroke="rgb(128 128 128)" fill="none" />
    <g id="board-text" class="board-text" transform="translate(0 9.5) scale (1 -1)">
      <text x="1" y="0.35" text-anchor="middle">A</text>
      <text x="2" y="0.35" text-anchor="middle">B</text>
      <text x="3" y="0.35" text-anchor="middle">C</text>
      <text x="4" y="0.35" text-anchor="middle">D</text>
      <text x="5" y="0.35" text-anchor="middle">E</text>
      <text x="6" y="0.35" text-anchor="middle">F</text>
      <text x="7" y="0.35" text-anchor="middle">G</text>
      <text x="8" y="0.35" text-anchor="middle">H</text>
      <text x="1" y="8.81" text-anchor="middle">A</text>
      <text x="2" y="8.81" text-anchor="middle">B</text>
      <text x="3" y="8.81" text-anchor="middle">C</text>
      <text x="4" y="8.81" text-anchor="middle">D</text>
      <text x="5" y="8.81" text-anchor="middle">E</text>
      <text x="6" y="8.81" text-anchor="middle">F</text>
      <text x="7" y="8.81" text-anchor="middle">G</text>
      <text x="8" y="8.81" text-anchor="middle">H</text>

      <text x="0.275" y="1.1" text-anchor="middle">8</text>
      <text x="0.275" y="2.1" text-anchor="middle">7</text>
      <text x="0.275" y="3.1" text-anchor="middle">6</text>
      <text x="0.275" y="4.1" text-anchor="middle">5</text>
      <text x="0.275" y="5.1" text-anchor="middle">4</text>
      <text x="0.275" y="6.1" text-anchor="middle">3</text>
      <text x="0.275" y="7.1" text-anchor="middle">2</text>
      <text x="0.275" y="8.1" text-anchor="middle">1</text>
      <text x="8.725" y="1.1" text-anchor="middle">8</text>
      <text x="8.725" y="2.1" text-anchor="middle">7</text>
      <text x="8.725" y="3.1" text-anchor="middle">6</text>
      <text x="8.725" y="4.1" text-anchor="middle">5</text>
      <text x="8.725" y="5.1" text-anchor="middle">4</text>
      <text x="8.725" y="6.1" text-anchor="middle">3</text>
      <text x="8.725" y="7.1" text-anchor="middle">2</text>
      <text x="8.725" y="8.1" text-anchor="middle">1</text>
    </g>
    <g id="removed-white" transform="translate(0.5 9.5) scale(0.5 0.5)" />
    <g id="removed-black" transform="translate(0.5 0) scale(0.5 0.5)" />
    <g id="board" transform="translate(0.5 1)">
      <g id="board-grid"/>
      <g id="board-figures"/>
    </g>
    <g id="pick-white" transform="translate(2.5 9)" />
    <g id="pick-black" transform="translate(2.5 0)" />
  </g>
</svg>
