<svg xmlns="http://www.w3.org/2000/svg">
  <defs>
    <path
      id="pawn"
      d="
        M 2,1 C 2,2 2,2 3,2 L 3.25,4 C 2.5,4 2.5,4 2.5,4.25 C 2.5,4.5 2.5,4.5 3.25,4.5
        C 3,6 3,6 4,6 C 5,6 5,6 4.75,4.5 C 5.5,4.5 5.5,4.5 5.5,4.25 C 5.5,4 5.5,4 4.75,4
        L 5,2 C 6,2 6,2 6,1 z
      "
    />
    <path
      id="rook"
      d="
        M 1.5,1 c 0,1 0,1 1,1 L 3.25,5 C 2,5 2,5 2,7
        h 0.75 v -0.5 h 0.75 v 0.5 h 1 v -0.5 h 0.75 v 0.5 h 0.75
        C 6,5 6,5 4.75,5 L 5.5,2 c 1,0 1,0 1,-1 z
      "
    />
    <path
      id="knight"
      d="
        M 1.5,1 c 0,1 0,1 1,1 c 0,1 0,1 1,2 c 0.5,1 0.5,1 -1,0.5 c -1,0 -1,0 -1,1
        L 6,7 l -0.25,-1 c 1,-1 -0.5,-2 -0.25,-4 c 1,0 1,0 1,-1 z
      "
    />
    <path
      id="bishop"
      d="
        M 1.5,1 c 0,1 0,1 1,1 L 3.25,3 C 2.25,3 2.25,5 4,7 C 5.75,5 5.75,3 4.75,3
        L 5.5,2 c 1,0 1,0 1,-1 z
      "
    />
    <path
      id="queen"
      d="
        M 1.5,1 c 0,1 0,1 1,1 L 1.5,6 3,5 4,7 5,5 6.5,6 5.5,2 c 1,0 1,0 1,-1 z
      "
    />
    <path
      id="king"
      d="
        M 1.5,1 c 0,1 0,1 1,1 C 1,4 1,6.5 3.75,5.75
        v 0.5 h -0.5 v 0.5 h 0.5 v 0.5 h 0.5 v -0.5 h 0.5 v -0.5 h -0.5 v -0.5
        C 7,6.5 7,4 5.5,2 c 1,0 1,0 1,-1 z
      "
    />
  </defs>
  <g id="board" transform="translate(0 8) scale(1 -1)" />
</svg>
